<svg id="Layer_1" data-name="Layer 1" xmlns="http://www.w3.org/2000/svg" viewBox="0 0 218.4 365"><defs><style>.cls-1{fill:#004a47;}.cls-2{fill:#fff;}.cls-3{font-size:13.82px;font-family:Montserrat-Medium, Montserrat;font-weight:500;}</style></defs><title>covid_prevention</title><path d="M48.41,31.34a7.18,7.18,0,0,1-2.9-2.72,7.43,7.43,0,0,1-1.06-4,7.45,7.45,0,0,1,1.06-4A7.25,7.25,0,0,1,48.41,18a8.92,8.92,0,0,1,4.16-1,9.12,9.12,0,0,1,3.79.75,7.1,7.1,0,0,1,2.75,2.18L56,22.72A4,4,0,0,0,52.82,21a3.25,3.25,0,0,0-2.47,1,3.7,3.7,0,0,0-.94,2.66,3.7,3.7,0,0,0,.94,2.67,3.24,3.24,0,0,0,2.47,1A4,4,0,0,0,56,26.61l3.1,2.78a7.08,7.08,0,0,1-2.75,2.17,9.12,9.12,0,0,1-3.79.75A8.8,8.8,0,0,1,48.41,31.34Z"/><path d="M62.68,31.43a5.92,5.92,0,0,1-2.36-2.12,5.93,5.93,0,0,1,0-6.12,5.8,5.8,0,0,1,2.36-2.1,8.05,8.05,0,0,1,6.83,0,5.74,5.74,0,0,1,2.36,2.1,6,6,0,0,1,0,6.12,5.85,5.85,0,0,1-2.36,2.12,8.05,8.05,0,0,1-6.83,0Zm4.74-3.52a2.41,2.41,0,0,0,.52-1.66,2.38,2.38,0,0,0-.52-1.65A1.71,1.71,0,0,0,66.09,24a1.73,1.73,0,0,0-1.34.59,2.43,2.43,0,0,0-.52,1.65,2.46,2.46,0,0,0,.52,1.66,1.71,1.71,0,0,0,1.34.6A1.69,1.69,0,0,0,67.42,27.91Z"/><path d="M86.55,20.54,82,32H77.1L72.52,20.54h4.83l2.29,6.13,2.46-6.13Z"/><path d="M87.59,18.94a2.27,2.27,0,0,1,0-3.44,3,3,0,0,1,2-.68,3.11,3.11,0,0,1,2.06.64,2.11,2.11,0,0,1,.77,1.68,2.3,2.3,0,0,1-.77,1.78,3.41,3.41,0,0,1-4.11,0Zm-.31,1.6H92V32H87.28Z"/><path d="M106.67,16.47V32h-4.48V31a4,4,0,0,1-3.12,1.15,5.47,5.47,0,0,1-2.76-.72,5.21,5.21,0,0,1-2-2.08,6.5,6.5,0,0,1-.74-3.14,6.4,6.4,0,0,1,.74-3.12,5.18,5.18,0,0,1,2-2.07,5.47,5.47,0,0,1,2.76-.73,3.93,3.93,0,0,1,2.89,1V16.47Zm-5.14,11.44a2.46,2.46,0,0,0,.52-1.66,2.43,2.43,0,0,0-.52-1.65,1.73,1.73,0,0,0-1.34-.59,1.71,1.71,0,0,0-1.33.59,2.38,2.38,0,0,0-.52,1.65,2.41,2.41,0,0,0,.52,1.66,1.69,1.69,0,0,0,1.33.6A1.71,1.71,0,0,0,101.53,27.91Z"/><path d="M108.65,24.16h6.24v3.55h-6.24Z"/><path d="M122.83,17.35V32h-4.92V21.07h-2.5V17.35Z"/><path d="M133.85,17.83a5.78,5.78,0,0,1,2.45,2.42,8.21,8.21,0,0,1,.87,3.95,9,9,0,0,1-1,4.35,6.76,6.76,0,0,1-2.83,2.8,9,9,0,0,1-4.24,1,10.19,10.19,0,0,1-2.5-.3,6.54,6.54,0,0,1-2-.85l1.77-3.45a4.44,4.44,0,0,0,2.65.78,3.3,3.3,0,0,0,2.09-.64A3,3,0,0,0,132.15,26a4.89,4.89,0,0,1-2.89.82,5.37,5.37,0,0,1-2.48-.59A4.7,4.7,0,0,1,125,24.58a4.41,4.41,0,0,1-.69-2.45,4.74,4.74,0,0,1,.78-2.69,5,5,0,0,1,2.14-1.8,7,7,0,0,1,3-.63A7.79,7.79,0,0,1,133.85,17.83ZM131.59,23a1.46,1.46,0,0,0,.42-1.1,1.4,1.4,0,0,0-.42-1.08,1.49,1.49,0,0,0-1.08-.4,1.46,1.46,0,0,0-1.08.4A1.4,1.4,0,0,0,129,21.9a1.43,1.43,0,0,0,1.5,1.51A1.49,1.49,0,0,0,131.59,23Z"/><path class="cls-1" d="M40.72,32.54a7.57,7.57,0,0,1,0,13.92,12.33,12.33,0,0,1-5,1h-3v5.17H25.59v-21H35.67A12.33,12.33,0,0,1,40.72,32.54Zm-3.35,8.78a2.66,2.66,0,0,0,0-3.64A3.14,3.14,0,0,0,35.22,37H32.65V42h2.57A3.14,3.14,0,0,0,37.37,41.32Z"/><path class="cls-1" d="M59.32,35.87v6a10.28,10.28,0,0,0-1.5-.12q-3.47,0-3.47,3.54v7.3H47.6V36.17H54v1.77A6.6,6.6,0,0,1,59.32,35.87Z"/><path class="cls-1" d="M78.39,46H67a2.77,2.77,0,0,0,1.2,1.43,4,4,0,0,0,2.09.5,5.25,5.25,0,0,0,1.81-.28,6.35,6.35,0,0,0,1.6-.93l3.53,3.58q-2.4,2.64-7.15,2.64a11.7,11.7,0,0,1-5.2-1.1,8.25,8.25,0,0,1-3.47-3,8.56,8.56,0,0,1,0-8.79,8.24,8.24,0,0,1,3.31-3A10.9,10.9,0,0,1,74,36.86a7.78,7.78,0,0,1,3.26,2.91,8.4,8.4,0,0,1,1.21,4.59Q78.48,44.51,78.39,46ZM67.81,41.06a2.71,2.71,0,0,0-.9,1.62h5.26a2.68,2.68,0,0,0-.89-1.6,2.6,2.6,0,0,0-1.74-.59A2.63,2.63,0,0,0,67.81,41.06Z"/><path class="cls-1" d="M98.52,36.17,91.94,52.59h-7L78.36,36.17H85.3L88.59,45l3.53-8.79Z"/><path class="cls-1" d="M116.43,46H105.06a2.77,2.77,0,0,0,1.2,1.43,4.07,4.07,0,0,0,2.09.5,5.25,5.25,0,0,0,1.81-.28,6.35,6.35,0,0,0,1.6-.93l3.53,3.58c-1.59,1.76-4,2.64-7.15,2.64a11.74,11.74,0,0,1-5.2-1.1,8.31,8.31,0,0,1-3.47-3,8.56,8.56,0,0,1,0-8.79,8.27,8.27,0,0,1,3.32-3,10.9,10.9,0,0,1,9.27-.09,7.75,7.75,0,0,1,3.25,2.91,8.41,8.41,0,0,1,1.22,4.59Q116.52,44.51,116.43,46Zm-10.59-4.89a2.65,2.65,0,0,0-.89,1.62h5.26a2.74,2.74,0,0,0-.9-1.6,2.59,2.59,0,0,0-1.73-.59A2.64,2.64,0,0,0,105.84,41.06Z"/><path class="cls-1" d="M134.86,37.7q1.84,1.83,1.84,5.52v9.37h-6.76v-8.2c0-1.88-.67-2.82-2-2.82a2.34,2.34,0,0,0-1.84.8,3.7,3.7,0,0,0-.7,2.5v7.72h-6.76V36.17h6.43v1.62a6.13,6.13,0,0,1,2.21-1.44,7.55,7.55,0,0,1,2.72-.48A6.6,6.6,0,0,1,134.86,37.7Z"/><path class="cls-1" d="M151.68,52a8.44,8.44,0,0,1-4.16.87,7.65,7.65,0,0,1-5.29-1.67,6.36,6.36,0,0,1-1.86-5V42h-2.24v-5h2.24V32.48h6.76v4.59h3.35v5h-3.35v4.14a1.65,1.65,0,0,0,.39,1.17,1.33,1.33,0,0,0,1,.43,2.63,2.63,0,0,0,1.52-.46Z"/><path class="cls-1" d="M153.81,33.87a3.29,3.29,0,0,1,0-4.95,4.34,4.34,0,0,1,2.95-1,4.45,4.45,0,0,1,3,.93,3,3,0,0,1,1.11,2.4,3.3,3.3,0,0,1-1.11,2.57,4.23,4.23,0,0,1-3,1A4.34,4.34,0,0,1,153.81,33.87Zm-.43,2.3h6.76V52.59h-6.76Z"/><path class="cls-1" d="M166.88,51.79a8.38,8.38,0,0,1-3.39-3,8.48,8.48,0,0,1,0-8.8,8.27,8.27,0,0,1,3.39-3,11.68,11.68,0,0,1,9.81,0,8.38,8.38,0,0,1,3.38,11.81,8.36,8.36,0,0,1-3.38,3,11.49,11.49,0,0,1-9.81,0Zm6.8-5a3.51,3.51,0,0,0,.75-2.39,3.44,3.44,0,0,0-.75-2.37,2.59,2.59,0,0,0-3.82,0,3.44,3.44,0,0,0-.75,2.37,3.51,3.51,0,0,0,.75,2.39,2.57,2.57,0,0,0,3.82,0Z"/><path class="cls-1" d="M199.62,37.7q1.84,1.83,1.84,5.52v9.37H194.7v-8.2c0-1.88-.66-2.82-2-2.82a2.34,2.34,0,0,0-1.84.8,3.7,3.7,0,0,0-.7,2.5v7.72H183.4V36.17h6.43v1.62A6.22,6.22,0,0,1,192,36.35a7.59,7.59,0,0,1,2.72-.48A6.57,6.57,0,0,1,199.62,37.7Z"/><rect class="cls-1" x="25.85" y="57.49" width="176.15" height="3.51"/><circle class="cls-1" cx="23.02" cy="97.6" r="10.6"/><circle class="cls-1" cx="23.02" cy="138.9" r="10.6"/><circle class="cls-1" cx="23.98" cy="191.23" r="10.6"/><circle class="cls-1" cx="23.02" cy="239.59" r="10.6"/><circle class="cls-1" cx="23.02" cy="283.57" r="10.6"/><path class="cls-2" d="M25.12,92.1v10.62H21.55V94.8H19.73V92.1Z"/><path class="cls-2" d="M27.86,141.68v2.77H19.38v-2.2l3.82-3.55a3,3,0,0,0,.67-.8,1.52,1.52,0,0,0,.16-.66.73.73,0,0,0-.26-.61,1.15,1.15,0,0,0-.76-.22,1.63,1.63,0,0,0-.91.26,1.68,1.68,0,0,0-.65.72L18.76,136a4.44,4.44,0,0,1,1.77-1.8,5.59,5.59,0,0,1,2.81-.66,5.67,5.67,0,0,1,2.22.41,3.52,3.52,0,0,1,1.51,1.17,2.89,2.89,0,0,1,.55,1.75,3.79,3.79,0,0,1-.37,1.64,6,6,0,0,1-1.45,1.74l-1.51,1.39Z"/><path class="cls-2" d="M28.08,190.82a2.91,2.91,0,0,1,.66,1.92,3.24,3.24,0,0,1-.52,1.78,3.83,3.83,0,0,1-1.61,1.35,6.39,6.39,0,0,1-2.71.51,10.57,10.57,0,0,1-2.23-.24,6.92,6.92,0,0,1-1.94-.71l1.21-2.65a5.24,5.24,0,0,0,1.4.58,5.73,5.73,0,0,0,1.44.2,2,2,0,0,0,1-.21.69.69,0,0,0,.38-.61c0-.49-.42-.73-1.26-.73H22.5v-2.2l1.55-1.59H20.27v-2.71h7.9v2.21l-2,2A3.4,3.4,0,0,1,28.08,190.82Z"/><path class="cls-2" d="M28.09,242H26.68v1.82H23.22V242H17.73v-2.28l4.49-6.53h3.66l-4,6h1.43v-1.63h3.36v1.63h1.41Z"/><path class="cls-2" d="M26.82,282.53A3.12,3.12,0,0,1,27.87,285a3.39,3.39,0,0,1-.52,1.84,3.61,3.61,0,0,1-1.61,1.37,6.16,6.16,0,0,1-2.7.52,10.5,10.5,0,0,1-2.23-.24,7.11,7.11,0,0,1-1.95-.71l1.21-2.64a6.06,6.06,0,0,0,1.4.57,5.6,5.6,0,0,0,1.43.2,2,2,0,0,0,1-.22.69.69,0,0,0,.38-.61.59.59,0,0,0-.35-.57,2.81,2.81,0,0,0-1.25-.19H19.62l.53-6.45h7v2.7h-4.1l-.07,1h.54A4.84,4.84,0,0,1,26.82,282.53Z"/><text class="cls-3" transform="translate(39.43 102.37)">Clean your hands often<tspan x="0" y="33.17">Maintain a safe distance</tspan><tspan x="0" y="49.76">from sick people</tspan><tspan x="0" y="82.93">Wear a mask whenever</tspan><tspan x="0" y="99.52">possible</tspan><tspan x="0" y="132.7">Stay home if you feel</tspan><tspan x="0" y="149.28">unwell</tspan><tspan x="0" y="182.46">Seek medical attention </tspan><tspan x="0" y="199.04">if ill</tspan></text></svg>