<svg id="Layer_1" data-name="Layer 1" xmlns="http://www.w3.org/2000/svg" viewBox="0 0 218.4 365"><defs><style>.cls-1{fill:#004a47;}.cls-2,.cls-3{isolation:isolate;}.cls-2{font-size:10.72px;font-family:Montserrat-Medium, Montserrat;font-weight:500;}.cls-3{font-size:12.49px;font-family:Montserrat-Bold, Montserrat;font-weight:700;}</style></defs><title>covid_myth</title><path d="M36.41,25,29.76,40.71h-5.2L17.92,25h5.7l3.74,9.21L31.2,25Z"/><path d="M46.3,29.62A5.55,5.55,0,0,1,48,34.09v6.62H43.29V39.09a3.46,3.46,0,0,1-3.47,1.85,5.48,5.48,0,0,1-2.48-.51,3.59,3.59,0,0,1-1.55-1.37,3.7,3.7,0,0,1-.53-2,3.15,3.15,0,0,1,1.39-2.77,7.59,7.59,0,0,1,4.22-1h2Q42.67,32,40.6,32a5.87,5.87,0,0,0-1.68.26,4.62,4.62,0,0,0-1.46.71l-1.61-3.36a9.1,9.1,0,0,1,2.54-1,12.2,12.2,0,0,1,3-.37A7.41,7.41,0,0,1,46.3,29.62Zm-4,8a1.64,1.64,0,0,0,.62-.87v-.86H41.68c-1,0-1.55.34-1.55,1a.87.87,0,0,0,.33.7,1.28,1.28,0,0,0,.88.29A1.66,1.66,0,0,0,42.31,37.58Z"/><path d="M53.29,40.13a6.22,6.22,0,0,1-2.58-2.28,6.34,6.34,0,0,1,0-6.61A6.25,6.25,0,0,1,53.29,29,8.36,8.36,0,0,1,57,28.17a7.19,7.19,0,0,1,3.83,1,5,5,0,0,1,2.2,2.68l-3.93,1.93A2.28,2.28,0,0,0,57,32.13a2,2,0,0,0-1.49.63,3,3,0,0,0,0,3.58A1.94,1.94,0,0,0,57,37a2.29,2.29,0,0,0,2.13-1.63l3.93,1.94A5,5,0,0,1,60.86,40a7.19,7.19,0,0,1-3.83,1A8.36,8.36,0,0,1,53.29,40.13Z"/><path d="M67,40.13a6.22,6.22,0,0,1-2.58-2.28,6.28,6.28,0,0,1,0-6.61A6.25,6.25,0,0,1,67,29a8.34,8.34,0,0,1,3.73-.81,7.21,7.21,0,0,1,3.84,1,5,5,0,0,1,2.2,2.68l-3.93,1.93a2.3,2.3,0,0,0-2.13-1.62,2,2,0,0,0-1.49.63,3,3,0,0,0,0,3.58,1.92,1.92,0,0,0,1.49.64,2.31,2.31,0,0,0,2.13-1.63l3.93,1.94A5,5,0,0,1,74.55,40a7.21,7.21,0,0,1-3.84,1A8.34,8.34,0,0,1,67,40.13Z"/><path d="M78.24,26.67a2.48,2.48,0,0,1,0-3.72,3.24,3.24,0,0,1,2.21-.73,3.3,3.3,0,0,1,2.22.7,2.25,2.25,0,0,1,.83,1.8,2.52,2.52,0,0,1-.83,1.93,3.17,3.17,0,0,1-2.22.75A3.24,3.24,0,0,1,78.24,26.67Zm-.33,1.72H83V40.71H77.91Z"/><path d="M97.4,29.54a5.63,5.63,0,0,1,1.38,4.15v7H93.71V34.56c0-1.41-.5-2.11-1.5-2.11a1.77,1.77,0,0,0-1.38.59,2.82,2.82,0,0,0-.53,1.89v5.78H85.23V28.39h4.82v1.22a4.67,4.67,0,0,1,1.66-1.08,5.68,5.68,0,0,1,2-.36A5,5,0,0,1,97.4,29.54Z"/><path d="M114.19,35.74h-8.52a2.1,2.1,0,0,0,.9,1.07,3.09,3.09,0,0,0,1.57.37,4,4,0,0,0,1.35-.2,4.8,4.8,0,0,0,1.2-.7L113.34,39a6.87,6.87,0,0,1-5.36,2,8.74,8.74,0,0,1-3.9-.82,6.21,6.21,0,0,1-2.61-2.29,6.06,6.06,0,0,1-.92-3.29,6.15,6.15,0,0,1,.91-3.3A6.25,6.25,0,0,1,104,29a7.71,7.71,0,0,1,3.56-.81,7.8,7.8,0,0,1,3.4.74,5.87,5.87,0,0,1,2.44,2.19,6.28,6.28,0,0,1,.91,3.44C114.26,34.62,114.24,35,114.19,35.74Zm-7.94-3.68a2.07,2.07,0,0,0-.67,1.22h4a2.06,2.06,0,0,0-.68-1.2,1.88,1.88,0,0,0-1.3-.44A2,2,0,0,0,106.25,32.06Z"/><path class="cls-1" d="M136.77,40.71l-.05-7.18-3.41,5.77H131l-3.41-5.52v6.93h-4.83V25h4.36l5.11,8.4,5-8.4h4.35l.05,15.76Z"/><path class="cls-1" d="M157.65,28.39l-5,12.57a7.17,7.17,0,0,1-2.4,3.38,6.16,6.16,0,0,1-3.53,1,7.4,7.4,0,0,1-2.07-.3,4.7,4.7,0,0,1-1.65-.8l1.68-3.5a3,3,0,0,0,.87.48,2.64,2.64,0,0,0,.93.18,1.56,1.56,0,0,0,1.25-.5l-5.16-12.48h5.21l2.53,6.6,2.58-6.6Z"/><path class="cls-1" d="M167.82,40.29a6.35,6.35,0,0,1-3.12.65,5.74,5.74,0,0,1-4-1.25,4.77,4.77,0,0,1-1.39-3.75V32.79h-1.69V29.07h1.69V25.62h5.07v3.45h2.51v3.72h-2.51v3.1a1.22,1.22,0,0,0,.29.88,1,1,0,0,0,.76.32,2,2,0,0,0,1.15-.34Z"/><path class="cls-1" d="M181.27,29.54a5.63,5.63,0,0,1,1.38,4.15v7h-5.07V34.56c0-1.41-.5-2.11-1.51-2.11a1.8,1.8,0,0,0-1.38.59,2.83,2.83,0,0,0-.52,1.89v5.78H169.1V24h5.07v5.38a5.1,5.1,0,0,1,3.45-1.21A5,5,0,0,1,181.27,29.54Z"/><path class="cls-1" d="M186.55,40.6a8.7,8.7,0,0,1-2.47-.88l1.4-3.35a7.53,7.53,0,0,0,2,.81,9.61,9.61,0,0,0,2.27.29,3.43,3.43,0,0,0,1.22-.15.45.45,0,0,0,.35-.43c0-.2-.15-.33-.44-.41a11.25,11.25,0,0,0-1.42-.23,18.39,18.39,0,0,1-2.56-.46,4,4,0,0,1-1.85-1.09,3.17,3.17,0,0,1-.8-2.32,3.43,3.43,0,0,1,.72-2.14,4.88,4.88,0,0,1,2.14-1.51,9.44,9.44,0,0,1,3.43-.56,13.71,13.71,0,0,1,2.72.26,8.25,8.25,0,0,1,2.28.75l-1.39,3.36a7.18,7.18,0,0,0-3.55-.9c-1.1,0-1.66.19-1.66.58q0,.3.45.42a11.59,11.59,0,0,0,1.41.24,16.3,16.3,0,0,1,2.55.47,4,4,0,0,1,1.84,1.1,3.19,3.19,0,0,1,.8,2.32,3.38,3.38,0,0,1-.72,2.1,4.91,4.91,0,0,1-2.15,1.51,9.69,9.69,0,0,1-3.48.56A14,14,0,0,1,186.55,40.6Z"/><rect class="cls-1" x="122.72" y="45.67" width="73.68" height="2.91"/><text class="cls-2" transform="translate(15.91 125.42)">If you’ve been vaccinated, you’re <tspan x="0" y="12.86">85%-95% less likely than someone </tspan><tspan x="0" y="25.73">who’s not vaccinated to get sick. If </tspan><tspan x="0" y="38.59">you are vaccinated and get infected, </tspan><tspan x="0" y="51.46">you’re not going to get as sick as </tspan><tspan x="0" y="64.32">someone who hasn’t been </tspan><tspan x="0" y="77.18">vaccinated, and you’re less likely to </tspan><tspan x="0" y="90.05">transmit the infection to someone </tspan><tspan x="0" y="102.91" xml:space="preserve">who hasn’t been vaccinated.     </tspan></text><text class="cls-3" transform="translate(12.81 72.25)">“I’ve already had COVID-19, so <tspan x="0" y="14.99">I have natural immunity and </tspan><tspan x="0" y="29.98">don’t need to get vaccinated.” </tspan></text><text class="cls-3" transform="translate(12.81 254.25)">“The COVID-19 vaccine will <tspan x="0" y="14.99">make me sick.”</tspan></text><text class="cls-2" transform="translate(15.94 290.29)">In our experience of immunizing <tspan x="0" y="12.86">over 100,000 people, people can get </tspan><tspan x="0" y="25.73">mild symptoms and very, very few </tspan><tspan x="0" y="38.59">will get severe symptoms. The vast </tspan><tspan x="0" y="51.46">majority of the time (symptoms) are </tspan><tspan x="0" y="64.32">short-lived – 24 to 48 hours. </tspan></text></svg>